HIERARCHY
ROOT Hips
{
	OFFSET -0.001795 -0.223333 0.028219
	CHANNELS 6 Xposition Yposition Zposition Zrotation Yrotation Xrotation 
	JOINT LeftUpLeg
	{
		OFFSET 0.069520 -0.091406 -0.006815
		CHANNELS 3 Zrotation Yrotation Xrotation
		JOINT LeftLeg
		{
			OFFSET 0.034277 -0.375199 -0.004496
			CHANNELS 3 Zrotation Yrotation Xrotation
			JOINT LeftFoot
			{
				OFFSET -0.013596 -0.397961 -0.043693
				CHANNELS 3 Zrotation Yrotation Xrotation
				JOINT LeftToe
				{
					OFFSET 0.026358 -0.055791 0.119288
					CHANNELS 3 Zrotation Yrotation Xrotation
					End Site
					{
						OFFSET 0.000000 0.000000 0.000000
					}
				}
			}
		}
	}
	JOINT RightUpLeg
	{
		OFFSET -0.067670 -0.090522 -0.004320
		CHANNELS 3 Zrotation Yrotation Xrotation
		JOINT RightLeg
		{
			OFFSET -0.038290 -0.382569 -0.008850
			CHANNELS 3 Zrotation Yrotation Xrotation
			JOINT RightFoot
			{
				OFFSET 0.015774 -0.398415 -0.042312
				CHANNELS 3 Zrotation Yrotation Xrotation
				JOINT RightToe
				{
					OFFSET -0.025372 -0.048144 0.123348
					CHANNELS 3 Zrotation Yrotation Xrotation
					End Site
					{
						OFFSET 0.000000 0.000000 0.000000
					}
				}
			}
		}
	}
	JOINT Spine
	{
		OFFSET -0.002533 0.108963 -0.026696
		CHANNELS 3 Zrotation Yrotation Xrotation
		JOINT Spine1
		{
			OFFSET 0.005487 0.135180 0.001092
			CHANNELS 3 Zrotation Yrotation Xrotation
			JOINT Spine2
			{
				OFFSET 0.001457 0.052922 0.025425
				CHANNELS 3 Zrotation Yrotation Xrotation
				JOINT Neck
				{
					OFFSET -0.002778 0.213870 -0.042857
					CHANNELS 3 Zrotation Yrotation Xrotation
					JOINT Head
					{
						OFFSET 0.005152 0.064970 0.051349
						CHANNELS 3 Zrotation Yrotation Xrotation
						End Site
						{
							OFFSET 0.000000 0.000000 0.000000
						}
					}
				}
				JOINT LeftShoulder
				{
					OFFSET 0.078845 0.121749 -0.034090
					CHANNELS 3 Zrotation Yrotation Xrotation
					JOINT LeftArm
					{
						OFFSET 0.090977 0.030469 -0.008868
						CHANNELS 3 Zrotation Yrotation Xrotation
						JOINT LeftForeArm
						{
							OFFSET 0.259612 -0.012772 -0.027456
							CHANNELS 3 Zrotation Yrotation Xrotation
							JOINT LeftHand
							{
								OFFSET 0.249234 0.008986 -0.001171
								CHANNELS 3 Zrotation Yrotation Xrotation
								End Site
								{
									OFFSET 0.000000 0.000000 0.000000
								}
							}
						}
					}
				}
				JOINT RightShoulder
				{
					OFFSET -0.081759 0.118833 -0.038615
					CHANNELS 3 Zrotation Yrotation Xrotation
					JOINT RightArm
					{
						OFFSET -0.096012 0.032551 -0.009143
						CHANNELS 3 Zrotation Yrotation Xrotation
						JOINT RightForeArm
						{
							OFFSET -0.253742 -0.013329 -0.021401
							CHANNELS 3 Zrotation Yrotation Xrotation
							JOINT RightHand
							{
								OFFSET -0.255298 0.007772 -0.005559
								CHANNELS 3 Zrotation Yrotation Xrotation
								End Site
								{
									OFFSET 0.000000 0.000000 0.000000
								}
							}
						}
					}
				}
			}
		}
	}
}
MOTION
Frames: 10
Frame Time: 0.050000
0.023058 0.951866 -0.033798 0.729763 -1.267191 5.561762 3.197295 -0.352150 -4.332969 1.143550 0.128141 -5.708704 -2.141925 0.496558 10.996870 0.000000 0.000000 0.000000 -3.200091 0.336478 -2.903137 -6.768190 0.065045 -6.339979 2.235139 -1.938987 14.646786 0.000000 0.000000 0.000000 3.932619 0.136432 -3.226089 -0.757421 0.415482 -3.724762 -7.206269 8.259794 4.086633 9.947941 -4.239594 -14.895330 0.000000 0.000000 0.000000 -12.893274 -5.400275 -0.324041 -51.736964 -8.456260 -2.342599 -3.360369 -19.911840 0.991755 0.000000 0.000000 0.000000 14.121586 -2.292984 -0.826033 64.620711 4.165535 -3.351164 3.906373 24.387520 2.026491 0.000000 0.000000 0.000000 
0.022792 0.952362 -0.034638 0.703932 -1.338892 5.774148 3.270755 -0.363414 -4.505713 0.941543 0.139755 -5.698738 -1.921366 0.837696 10.930901 0.000000 0.000000 0.000000 -3.228725 0.353251 -3.099036 -6.462459 0.026185 -6.584854 2.205791 -2.029408 14.714991 0.000000 0.000000 0.000000 3.894719 0.145869 -3.389479 -0.550034 0.322096 -3.560915 -7.051086 8.106097 3.778492 10.167999 -4.379647 -14.942562 0.000000 0.000000 0.000000 -12.915674 -6.220713 0.068132 -50.197022 -10.579260 -1.315419 -1.164568 -20.007678 0.621019 0.000000 0.000000 0.000000 13.891878 -2.363778 -0.905417 64.729771 4.533707 -3.102028 3.259950 24.971795 1.947837 0.000000 0.000000 0.000000 
0.022473 0.953048 -0.035553 0.708428 -1.557170 5.686694 3.151390 -0.351783 -4.320561 1.066083 0.137273 -5.813369 -1.973160 0.837747 11.230431 0.000000 0.000000 0.000000 -3.314445 0.361894 -3.200796 -6.444550 0.030643 -6.522041 2.344617 -1.875209 14.868774 0.000000 0.000000 0.000000 3.872437 0.122368 -3.056710 -0.297586 0.209033 -3.473296 -6.870098 7.476125 3.439834 9.665584 -4.140164 -14.854326 0.000000 0.000000 0.000000 -12.421652 -6.581297 0.436204 -48.146181 -13.598686 -0.052400 1.126687 -20.502196 0.250170 0.000000 0.000000 0.000000 13.567145 -1.721383 -0.712763 64.889006 4.867980 -2.925399 2.364904 26.056969 1.825461 0.000000 0.000000 0.000000 
0.022131 0.953565 -0.036453 0.689982 -1.644148 5.663133 3.352094 -0.334851 -4.098665 0.963100 0.144250 -5.835357 -1.836543 1.109412 11.365722 0.000000 0.000000 0.000000 -3.448370 0.361659 -3.163413 -6.132189 0.000612 -6.690708 2.572961 -1.499526 14.940659 0.000000 0.000000 0.000000 3.879999 0.128234 -3.131262 -0.173014 0.153376 -3.439801 -6.555391 6.920272 3.213352 9.253078 -3.914187 -14.941615 0.000000 0.000000 0.000000 -11.361767 -8.084373 1.346027 -45.154435 -18.029194 1.555253 5.043684 -19.962402 -0.416017 0.000000 0.000000 0.000000 12.958404 -1.510550 -0.715690 64.827082 4.887077 -2.897769 2.798289 27.263915 1.992134 0.000000 0.000000 0.000000 
0.021952 0.954099 -0.037457 0.663808 -1.831656 5.435161 3.280250 -0.321359 -3.910372 1.067566 0.137925 -5.836161 -1.803937 1.202272 11.526098 0.000000 0.000000 0.000000 -3.404328 0.347397 -2.983057 -6.259395 -0.012128 -6.886043 2.942024 -1.053602 15.401287 0.000000 0.000000 0.000000 3.967976 0.111627 -2.869586 0.104273 0.034131 -3.586368 -6.351026 6.071718 3.138280 8.743518 -3.770078 -14.495187 0.000000 0.000000 0.000000 -9.820415 -8.822455 1.979271 -42.328589 -22.596730 2.924782 8.409902 -19.586034 -0.954875 0.000000 0.000000 0.000000 12.299278 -1.016559 -0.615398 64.968009 4.916839 -2.925575 3.089310 28.658700 2.133298 0.000000 0.000000 0.000000 
0.022013 0.954401 -0.038585 0.838729 -1.845245 5.376361 3.192725 -0.321699 -3.904285 1.223903 0.112647 -5.490757 -1.856843 1.162470 11.663319 0.000000 0.000000 0.000000 -3.334918 0.358008 -3.154203 -6.597293 0.026408 -6.631163 3.286031 -0.317841 15.138594 0.000000 0.000000 0.000000 3.878690 0.123429 -3.014571 0.362926 -0.082226 -3.432787 -6.106524 5.414409 3.206926 8.469763 -3.635923 -14.642403 0.000000 0.000000 0.000000 -8.581447 -10.379800 2.838950 -39.130939 -26.732780 3.881525 12.469177 -19.575915 -1.635794 0.000000 0.000000 0.000000 11.953008 -0.597761 -0.514790 64.720359 4.597758 -3.150997 4.172873 30.463864 2.529183 0.000000 0.000000 0.000000 
0.022321 0.954753 -0.039783 0.859767 -2.252724 5.218176 3.218433 -0.304003 -3.679336 1.110557 0.113729 -5.371141 -1.539164 1.552946 11.401501 0.000000 0.000000 0.000000 -3.353385 0.337414 -2.848061 -6.596311 -0.024498 -7.149025 3.514416 -0.115018 15.453999 0.000000 0.000000 0.000000 3.828337 0.118028 -2.898911 0.878853 -0.316821 -3.240281 -6.163192 5.285760 3.223310 8.493293 -3.679493 -14.643949 0.000000 0.000000 0.000000 -6.486986 -11.468085 3.440465 -36.171657 -30.327970 4.461270 13.926223 -21.722480 -2.095850 0.000000 0.000000 0.000000 11.910600 -0.383779 -0.456190 64.379979 4.757218 -3.093807 4.477231 31.786027 2.731551 0.000000 0.000000 0.000000 
0.022932 0.954835 -0.040889 0.998069 -2.393967 5.305429 2.963752 -0.338046 -4.155848 1.087784 0.070101 -4.375437 -1.268815 1.726824 10.645077 0.000000 0.000000 0.000000 -3.590630 0.366180 -3.184583 -6.691858 0.015973 -6.754333 3.933291 0.922434 14.818443 0.000000 0.000000 0.000000 3.864018 0.109585 -2.801742 0.736277 -0.261168 -3.030390 -5.878165 4.695118 3.189339 8.610435 -3.854488 -14.450665 0.000000 0.000000 0.000000 -5.605189 -12.540976 3.977641 -34.241009 -34.172039 5.165831 14.358587 -26.578129 -2.643398 0.000000 0.000000 0.000000 11.706415 0.515108 -0.132448 64.708144 4.248601 -3.434809 4.625466 33.552310 2.894742 0.000000 0.000000 0.000000 
0.023712 0.955249 -0.041962 1.191202 -2.503155 5.321418 2.949322 -0.351098 -4.357226 0.622642 0.085166 -3.914280 -1.115446 1.936644 10.530746 0.000000 0.000000 0.000000 -3.999697 0.358293 -2.950187 -6.217736 -0.030476 -7.036252 3.696260 0.419097 14.922815 0.000000 0.000000 0.000000 3.956751 0.092922 -2.590860 1.167262 -0.462410 -2.682016 -6.545096 4.512534 2.585576 8.670610 -3.947832 -14.087610 0.000000 0.000000 0.000000 -4.672246 -14.587115 4.783148 -33.203485 -37.303908 5.813462 11.253257 -33.136738 -2.419104 0.000000 0.000000 0.000000 12.700170 0.599593 -0.141312 63.999367 3.851335 -3.619661 5.945923 35.665682 3.509329 0.000000 0.000000 0.000000 
0.024658 0.955357 -0.043009 1.120694 -2.368922 5.217477 2.964651 -0.368340 -4.635688 0.653519 0.053190 -3.183487 -1.388517 1.436670 10.401970 0.000000 0.000000 0.000000 -4.101578 0.350062 -2.825536 -6.116442 -0.025258 -6.944050 3.722652 0.640617 14.601589 0.000000 0.000000 0.000000 4.212734 0.076302 -2.376295 1.498900 -0.632526 -2.005911 -7.052601 3.569177 2.011767 8.796584 -4.121117 -13.817269 0.000000 0.000000 0.000000 -4.382427 -16.259993 5.487886 -34.323602 -40.528658 7.086721 5.555750 -41.239562 -0.884645 0.000000 0.000000 0.000000 12.760387 1.663897 0.240615 64.442683 3.561865 -3.794230 6.674746 36.298419 3.714435 0.000000 0.000000 0.000000 
